<svg t="1753830028361" class="icon" viewBox="0 0 1024 1024" version="1.1" xmlns="http://www.w3.org/2000/svg" p-id="3060" width="200" height="200">
    <path d="M553.528 246.64h-71.17V38.63a38.482 38.482 0 0 0-76.963 0v208.01h-168.19V38.63a38.482 38.482 0 0 0-76.964 0v208.01H88.627a59.431 59.431 0 0 0-59.431 59.43v87.068a59.431 59.431 0 0 0 59.43 59.43h12.036v171.46l98.655 106.679 35.808 114.256h35.361V1024h100.44V844.518h35.51l35.807-114.257 99.25-106.233V453.312h12.035a59.431 59.431 0 0 0 59.43-59.432v-87.512a59.431 59.431 0 0 0-59.43-59.431zM479.98 599.512l-77.854 83.947h-161.95l-77.261-83.947v-146.2H479.98z m71.764-208.009H91.153v-83.352h460.592z m79.489 613.033l85.73-292.996-122.132-35.658 363.57-336.53-85.729 292.996 122.131 35.808-363.57 336.38z" p-id="3061"></path>
</svg>