<?xml version="1.0" standalone="no"?><!DOCTYPE svg PUBLIC "-//W3C//DTD SVG 1.1//EN" "http://www.w3.org/Graphics/SVG/1.1/DTD/svg11.dtd"><svg t="1753829616413" class="icon" viewBox="0 0 1193 1024" version="1.1" xmlns="http://www.w3.org/2000/svg" p-id="7309" xmlns:xlink="http://www.w3.org/1999/xlink" width="233.0078125" height="200"><path d="M357.85496 16.722608m19.598189 0l172.180925 0q19.598189 0 19.598189 19.598188l0 846.969121q0 19.598189-19.598189 19.598188l-172.180925 0q-19.598189 0-19.598189-19.598188l0-846.969121q0-19.598189 19.598189-19.598188Z" fill="#54A0FF" p-id="7310"></path><path d="M122.101581 16.722608m19.598189 0l172.180925 0q19.598189 0 19.598189 19.598188l0 846.969121q0 19.598189-19.598189 19.598188l-172.180925 0q-19.598189 0-19.598189-19.598188l0-846.969121q0-19.598189 19.598189-19.598188Z" fill="#FDBC41" p-id="7311"></path><path d="M146.477658 195.583728m7.830427 0l146.920055 0q7.830427 0 7.830427 7.830428l0 16.855327q0 7.830427-7.830427 7.830427l-146.920055 0q-7.830427 0-7.830427-7.830427l0-16.855327q0-7.830427 7.830427-7.830428Z" fill="#FFFFFF" p-id="7312"></path><path d="M146.477658 309.412485m7.830427 0l146.920055 0q7.830427 0 7.830427 7.830428l0 16.855327q0 7.830427-7.830427 7.830427l-146.920055 0q-7.830427 0-7.830427-7.830427l0-16.855327q0-7.830427 7.830427-7.830428Z" fill="#FFFFFF" p-id="7313"></path><path d="M146.477658 423.241242m7.830427 0l146.920055 0q7.830427 0 7.830427 7.830427l0 16.855327q0 7.830427-7.830427 7.830428l-146.920055 0q-7.830427 0-7.830427-7.830428l0-16.855327q0-7.830427 7.830427-7.830427Z" fill="#FFFFFF" p-id="7314"></path><path d="M146.477658 537.069998m7.830427 0l146.920055 0q7.830427 0 7.830427 7.830428l0 16.855327q0 7.830427-7.830427 7.830427l-146.920055 0q-7.830427 0-7.830427-7.830427l0-16.855327q0-7.830427 7.830427-7.830428Z" fill="#FFFFFF" p-id="7315"></path><path d="M382.275276 195.583728m7.830428 0l146.920055 0q7.830427 0 7.830427 7.830428l0 16.855327q0 7.830427-7.830427 7.830427l-146.920055 0q-7.830427 0-7.830428-7.830427l0-16.855327q0-7.830427 7.830428-7.830428Z" fill="#FFFFFF" p-id="7316"></path><path d="M382.275276 309.412485m7.830428 0l146.920055 0q7.830427 0 7.830427 7.830428l0 16.855327q0 7.830427-7.830427 7.830427l-146.920055 0q-7.830427 0-7.830428-7.830427l0-16.855327q0-7.830427 7.830428-7.830428Z" fill="#FFFFFF" p-id="7317"></path><path d="M382.275276 423.241242m7.830428 0l146.920055 0q7.830427 0 7.830427 7.830427l0 16.855327q0 7.830427-7.830427 7.830428l-146.920055 0q-7.830427 0-7.830428-7.830428l0-16.855327q0-7.830427 7.830428-7.830427Z" fill="#FFFFFF" p-id="7318"></path><path d="M382.275276 537.069998m7.830428 0l146.920055 0q7.830427 0 7.830427 7.830428l0 16.855327q0 7.830427-7.830427 7.830427l-146.920055 0q-7.830427 0-7.830428-7.830427l0-16.855327q0-7.830427 7.830428-7.830428Z" fill="#FFFFFF" p-id="7319"></path><path d="M597.736029 42.029638m19.132893-4.245163l168.093043-37.296112q19.132893-4.245164 23.378056 14.887729l183.461987 826.860563q4.245164 19.132893-14.887729 23.378056l-168.093043 37.296112q-19.132893 4.245164-23.378056-14.887729l-183.461987-826.860563q-4.245164-19.132893 14.887729-23.378056Z" fill="#AB47BC" p-id="7320"></path><path d="M660.304613 211.356416m7.644519-1.696149l143.431911-31.824354q7.644519-1.696149 9.340668 5.948371l3.651033 16.455151q1.696149 7.644519-5.948371 9.340668l-143.43191 31.824354q-7.644519 1.696149-9.340668-5.94837l-3.651033-16.455151q-1.696149-7.644519 5.94837-9.340669Z" fill="#FFFFFF" p-id="7321"></path><path d="M684.897177 322.473491m7.644519-1.696149l143.431911-31.824354q7.644519-1.696149 9.340668 5.94837l3.651032 16.455151q1.696149 7.644519-5.94837 9.340668l-143.431911 31.824354q-7.644519 1.696149-9.340668-5.94837l-3.651032-16.455151q-1.696149-7.644519 5.94837-9.340668Z" fill="#FFFFFF" p-id="7322"></path><path d="M709.621223 433.625613m7.64452-1.696149l143.43191-31.824354q7.644519-1.696149 9.340668 5.94837l3.651033 16.455151q1.696149 7.644519-5.94837 9.340668l-143.431911 31.824354q-7.644519 1.696149-9.340668-5.94837l-3.651033-16.455151q-1.696149-7.644519 5.948371-9.340668Z" fill="#FFFFFF" p-id="7323"></path><path d="M734.24881 544.699457m7.644519-1.696149l143.431911-31.824354q7.644519-1.696149 9.340668 5.94837l3.651032 16.455152q1.696149 7.644519-5.94837 9.340668l-143.43191 31.824354q-7.644519 1.696149-9.340669-5.94837l-3.651032-16.455152q-1.696149-7.644519 5.94837-9.340668Z" fill="#FFFFFF" p-id="7324"></path><path d="M0 921.999657m8.184345 0l1099.268148 0q8.184345 0 8.184346 8.184345l0 18.757634q0 8.184345-8.184346 8.184345l-1099.268148 0q-8.184345 0-8.184345-8.184345l0-18.757634q0-8.184345 8.184345-8.184345Z" fill="#FA9F15" p-id="7325"></path></svg>